<?xml version="1.0" standalone="no"?>
<!DOCTYPE svg PUBLIC "-//W3C//DTD SVG 20010904//EN"
 "http://www.w3.org/TR/2001/REC-SVG-20010904/DTD/svg10.dtd">
<svg version="1.0" xmlns="http://www.w3.org/2000/svg"
 width="100.000000pt" height="100.000000pt" viewBox="0 0 100.000000 100.000000"
 preserveAspectRatio="xMidYMid meet">
<metadata>
Created by potrace 1.11, written by Peter Selinger 2001-2013
</metadata>
<g transform="translate(0.000000,100.000000) scale(0.100000,-0.100000)"
fill="#000000" stroke="none">
<path d="M503 839 c-24 -12 -53 -33 -65 -48 -21 -24 -28 -26 -83 -23 l-60 4
19 -21 c11 -12 17 -23 15 -24 -2 -2 -30 -20 -61 -41 -41 -27 -58 -45 -63 -67
-5 -21 -16 -33 -41 -44 -19 -8 -37 -21 -40 -30 -3 -8 -16 -15 -28 -16 -15 0
-17 -2 -6 -7 9 -4 15 -20 14 -40 -1 -70 39 -112 117 -121 4 -1 9 -15 13 -33
11 -55 54 -116 102 -144 38 -23 53 -26 104 -22 48 3 67 10 100 37 36 29 42 31
55 17 19 -19 76 -30 104 -21 12 3 35 18 51 31 17 14 40 24 52 23 87 -10 145
83 103 165 -11 20 -13 38 -7 60 16 60 -15 134 -69 164 -16 10 -32 28 -35 42
-7 36 -56 130 -69 131 -5 1 4 5 20 9 l30 8 -35 1 c-19 1 -53 8 -75 16 -57 20
-113 18 -162 -6z"/>
<path d="M760 790 c0 -6 7 -10 15 -10 8 0 15 2 15 4 0 2 -7 6 -15 10 -8 3 -15
1 -15 -4z"/>
</g>
</svg>
